<?xml version="1.0" encoding="UTF-8"?>
<!-- Generated by Pixelmator Pro 3.5.3 -->
<svg width="325" height="291" viewBox="0 0 325 291" xmlns="http://www.w3.org/2000/svg">
    <path id="Path" fill="#ffffff" stroke="none" d="M 199.779999 290.930023 C 199.470001 288.990021 198.970001 287.290009 198.970001 285.589996 C 198.919998 253.720001 198.820007 221.850006 199.130005 189.980011 C 199.160004 187.350006 201.430008 183.809998 203.720001 182.279999 C 225.770004 167.580017 248.029999 153.209991 270.269989 138.789993 C 271.839996 137.769989 273.649994 137.110001 275.709991 136.099991 L 275.709991 290.920013 L 199.779999 290.920013 Z"/>
    <path id="path1" fill="#ffffff" stroke="none" d="M 199.610001 0.230011 L 199.610001 139.169998 C 201.75 138.059998 203.720001 137.23999 205.480011 136.099991 C 227.25 121.970001 249.059998 107.889999 270.649994 93.490005 C 273.209991 91.789993 276.140015 88.259995 276.179993 85.539993 C 276.580017 58.309998 276.410004 31.059998 276.360016 3.820007 C 276.360016 2.850006 276 1.880005 275.679993 0.230011 L 199.610001 0.230011 Z"/>
    <path id="path2" fill="#ffffff" stroke="none" d="M 99.449997 61.610001 L 99.449997 154.599991 C 109.5 147.769989 118.309998 141.789993 127.889999 135.279999 C 136 146.959991 144.039993 158.539993 152.429993 170.619995 C 159.699997 165.860016 166.580002 161.589996 173.149994 156.87999 C 174.660004 155.789993 175.850006 153.179993 175.860001 151.259995 C 176.009995 122.220001 175.940002 93.179993 175.889999 64.139999 C 175.889999 63.440002 175.520004 62.729996 175.199997 61.610001 L 99.449997 61.610001 Z"/>
    <path id="path3" fill="#ffffff" stroke="none" d="M -0.279999 269.950012 C -0.959991 276.680023 -0.48999 283.529999 -0.48999 290.740021 L 76.009995 290.740021 L 76.009995 214.649994 C 62.220001 223.610016 49.48999 231.889999 36.76001 240.179993 C 25.899994 247.25 14.880005 254.099991 4.290009 261.570007 C 1.920013 263.25 0.01001 266.980011 -0.279999 269.950012 Z"/>
    <path id="path4" fill="#ffffff" stroke="none" d="M 0.070007 122.660004 L 0.070007 218.519989 C 2.23999 217.380005 4.029999 216.610016 5.649994 215.559998 C 27.410004 201.450012 49.079987 187.190002 70.940002 173.230011 C 75.039993 170.619995 76.809998 167.839996 76.660004 162.839996 C 76.279999 149.679993 76.529999 136.5 76.529999 122.660004 L 0.070007 122.660004 Z"/>
    <path id="path5" fill="#ffffff" stroke="none" d="M 99.080002 203.089996 C 98.919998 232.099991 98.970001 261.110016 98.970001 290.650024 L 175.429993 290.650024 L 175.429993 200.589996 C 163.919998 208.029999 153.309998 214.890015 142.089996 222.140015 C 134.179993 210.570007 126.360001 199.140015 118.210007 187.209991 C 112.160004 191.119995 106.740005 194.390015 101.619995 198.089996 C 100.25 199.089996 99.089996 201.380005 99.080002 203.089996 Z"/>
    <path id="path6" fill="#ffffff" stroke="none" d="M 283.890015 85.970001 C 292.559998 88.160004 300.369995 90.119995 308.549988 92.179993 C 306.929993 100.319992 305.420013 107.919998 303.839996 115.850006 C 322.410004 110.869995 322.429993 96 324.75 82.449997 C 308.869995 73.960007 298.76001 74.649994 283.890015 85.970001 Z"/>
</svg>
